HIERARCHY
ROOT Hips
{
 OFFSET 0.000000 0.000000 0.000000
 CHANNELS 6 Xposition Yposition Zposition Yrotation Xrotation Zrotation
 JOINT Chest
 {
  OFFSET 0.000000 9.585900 0.002600
  CHANNELS 3 Yrotation Xrotation Zrotation
  JOINT Chest2
  {
   OFFSET 0.000000 9.601200 -0.005300
   CHANNELS 3 Yrotation Xrotation Zrotation
   JOINT Chest3
   {
    OFFSET 0.000000 9.561800 0.000000
    CHANNELS 3 Yrotation Xrotation Zrotation
    JOINT Chest4
    {
     OFFSET 0.000000 9.552100 0.000000
     CHANNELS 3 Yrotation Xrotation Zrotation
     JOINT Neck
     {
      OFFSET 0.000000 14.453000 0.000000
      CHANNELS 3 Yrotation Xrotation Zrotation
      JOINT Head
      {
       OFFSET 0.000000 8.936500 -0.011300
       CHANNELS 3 Yrotation Xrotation Zrotation
       End Site
       {
        OFFSET 0.000000 17.073600 -0.006000
       }
      }
     }
     JOINT RightCollar
     {
      OFFSET -2.921100 9.558500 0.000000
      CHANNELS 3 Yrotation Xrotation Zrotation
      JOINT RightShoulder
      {
       OFFSET -13.519700 0.000000 0.000000
       CHANNELS 3 Yrotation Xrotation Zrotation
       JOINT RightElbow
       {
        OFFSET 0.000000 -29.696600 0.000000
        CHANNELS 3 Yrotation Xrotation Zrotation
        JOINT RightWrist
        {
         OFFSET 0.000000 -24.004700 0.000000
         CHANNELS 3 Yrotation Xrotation Zrotation
         End Site
         {
          OFFSET 0.000000 -17.728500 0.000000
         }
        }
       }
      }
     }
     JOINT LeftCollar
     {
      OFFSET 2.921100 9.558500 0.000000
      CHANNELS 3 Yrotation Xrotation Zrotation
      JOINT LeftShoulder
      {
       OFFSET 13.519700 0.000000 0.000000
       CHANNELS 3 Yrotation Xrotation Zrotation
       JOINT LeftElbow
       {
        OFFSET 0.000000 -29.696600 0.000000
        CHANNELS 3 Yrotation Xrotation Zrotation
        JOINT LeftWrist
        {
         OFFSET 0.000000 -24.004700 0.000000
         CHANNELS 3 Yrotation Xrotation Zrotation
         End Site
         {
          OFFSET 0.000000 -17.728500 0.000000
         }
        }
       }
      }
     }
    }
   }
  }
 }
 JOINT RightHip
 {
  OFFSET -7.771700 -0.012900 -0.001300
  CHANNELS 3 Yrotation Xrotation Zrotation
  JOINT RightKnee
  {
   OFFSET 0.000000 -40.869800 0.001200
   CHANNELS 3 Yrotation Xrotation Zrotation
   JOINT RightAnkle
   {
    OFFSET 0.000000 -39.717900 0.002100
    CHANNELS 3 Yrotation Xrotation Zrotation
    JOINT RightToe
    {
     OFFSET 0.000000 -4.965400 11.033500
     CHANNELS 3 Yrotation Xrotation Zrotation
     End Site
     {
      OFFSET 0.000000 -1.423100 5.872300
     }
    }
   }
  }
 }
 JOINT LeftHip
 {
  OFFSET 7.771700 -0.012900 -0.001300
  CHANNELS 3 Yrotation Xrotation Zrotation
  JOINT LeftKnee
  {
   OFFSET 0.000000 -40.869800 0.001200
   CHANNELS 3 Yrotation Xrotation Zrotation
   JOINT LeftAnkle
   {
    OFFSET 0.000000 -39.717900 0.002100
    CHANNELS 3 Yrotation Xrotation Zrotation
    JOINT LeftToe
    {
     OFFSET 0.000000 -4.965400 11.033500
     CHANNELS 3 Yrotation Xrotation Zrotation
     End Site
     {
      OFFSET 0.000000 -1.423100 5.872300
     }
    }
   }
  }
 }
}
MOTION
Frames: 16
Frame Time: 0.008333
0.000000 85.388000 0.000000 0.000000 -5.767877 0.000000 0.000000 11.653817 0.000000 0.000000 -5.885947 0.000000 0.000000 -0.000000 0.000000 0.000000 -0.000000 0.000000 0.000000 12.528835 0.000000 0.000000 0.711642 0.000000 0.000000 -0.000000 0.000000 0.000000 0.000000 -90.000000 0.000000 -2.309062 0.000000 0.000000 2.309062 0.000000 0.000000 -0.000000 0.000000 0.000000 -0.000000 90.000000 0.000000 -2.309062 0.000000 0.000000 2.309062 0.000000 0.000000 8.520406 0.000000 0.000000 1.905762 0.000000 -0.000000 -4.658285 0.000000 0.000000 -0.000000 0.000000 0.000000 8.520406 0.000000 0.000000 1.905762 0.000000 -0.000000 -4.658285 0.000000 0.000000 -0.000000 0.000000
10.068678 50.114569 48.028242 174.863526 -29.388421 -6.492819 6.920044 21.167633 7.608406 0.844328 3.101515 0.763913 1.225333 4.979186 1.270619 5.394080 18.001659 5.280939 -5.646472 13.534892 -3.194145 -9.400360 -10.678844 -3.799623 -3.356132 -2.255533 -4.043175 5.745662 -2.762512 0.617940 95.187235 -64.092764 -102.442125 4.786340 -14.808723 -33.269066 -10.636994 -2.648812 -0.048187 -3.139885 -2.599224 0.166105 -112.843232 -58.061609 122.738243 11.136489 -19.888759 -10.082585 -0.271976 -51.284762 9.451271 -122.426134 85.172935 -111.390596 -2.577661 -12.632407 -2.901948 -0.198791 0.742287 -0.111231 -9.432453 -54.812893 15.476971 -148.735986 80.425811 -156.785922 0.556202 -17.112060 8.539087 -0.498640 -0.887504 -0.365531
10.071110 50.108607 48.025646 174.838646 -29.355522 -6.460017 6.861582 21.141105 7.566264 0.832782 3.093075 0.759346 1.213804 4.956424 1.266832 5.348405 17.982307 5.266871 -5.641058 13.526103 -3.172377 -9.399004 -10.694102 -3.760247 -3.401727 -2.226665 -3.993894 5.597114 -2.664289 0.731608 95.080045 -64.826984 -102.264500 4.618019 -14.609958 -32.772553 -10.620324 -2.643181 -0.069353 -2.988380 -2.560552 0.114248 -112.488229 -57.992617 122.570097 10.926514 -19.447200 -10.353798 -0.236462 -51.344421 9.441688 -122.833640 85.211609 -111.801660 -2.655906 -12.589914 -2.904046 -0.179856 0.739364 -0.099593 -9.446379 -54.845144 15.447944 -148.927322 80.436614 -156.976409 0.588902 -17.119122 8.545732 -0.515454 -0.868518 -0.370537
10.074776 50.102233 48.022222 174.792207 -29.325205 -6.421198 6.874371 21.109169 7.541158 0.778257 3.077075 0.762888 1.240927 4.956637 1.260098 5.270211 17.942169 5.262698 -5.637880 13.522817 -3.144808 -9.404080 -10.698818 -3.709254 -3.430653 -2.210435 -3.955277 5.441399 -2.534612 0.854923 95.022305 -65.530642 -102.140049 4.476777 -14.434095 -32.286068 -10.611265 -2.643331 -0.089420 -2.855630 -2.529565 0.059591 -112.097601 -57.942977 122.370750 10.701538 -18.973058 -10.658054 -0.162986 -51.429720 9.447472 -123.652814 85.284730 -112.621000 -2.844387 -12.502258 -2.901117 -0.128647 0.684343 -0.071249 -9.445429 -54.878464 15.418876 -149.160872 80.441620 -157.192866 0.602783 -17.126861 8.555207 -0.503408 -0.858774 -0.398357
10.081056 50.096890 48.016761 174.765738 -29.306452 -6.407171 6.826816 21.086229 7.521998 0.770101 3.066729 0.760635 1.268450 4.959690 1.253352 5.200633 17.899034 5.264347 -5.635659 13.526304 -3.112338 -9.412742 -10.690733 -3.649024 -3.446457 -2.201400 -3.930208 5.277402 -2.384250 0.986045 95.000668 -66.175046 -102.052758 4.353145 -14.282641 -31.859803 -10.609524 -2.648490 -0.109752 -2.746062 -2.508445 0.004229 -111.654857 -57.904665 122.132795 10.452286 -18.456296 -11.004648 -0.137375 -51.472224 9.458044 -124.232781 85.353988 -113.201060 -2.919523 -12.459949 -2.897658 -0.145259 0.654416 -0.072694 -9.471622 -54.896548 15.405683 -149.413530 80.445506 -157.419602 0.624633 -17.145826 8.524173 -0.499892 -0.851878 -0.413888
10.090285 50.092746 48.010153 174.736488 -29.298993 -6.411957 6.738414 21.065478 7.522061 0.816613 3.069306 0.746708 1.201510 4.910253 1.259292 5.216722 17.907857 5.251964 -5.631660 13.536705 -3.077032 -9.418975 -10.669793 -3.584473 -3.450668 -2.194752 -3.918048 5.112317 -2.230248 1.116248 94.980257 -66.742473 -101.968425 4.242610 -14.146108 -31.530110 -10.609217 -2.654560 -0.132641 -2.662590 -2.500312 -0.048756 -111.155694 -57.866830 121.853608 10.169716 -17.882453 -11.404478 -0.131498 -51.498713 9.499109 -124.458267 85.367998 -113.422277 -2.934783 -12.420835 -2.894736 -0.168502 0.654661 -0.076112 -9.518712 -54.902292 15.411488 -149.689371 80.443373 -157.641619 0.633297 -17.174303 8.453076 -0.456828 -0.823313 -0.381314
10.092970 50.087244 48.004976 174.700381 -29.278610 -6.380296 6.699868 21.033056 7.493880 0.747842 3.033519 0.756569 1.232970 4.909190 1.246932 5.248562 17.933830 5.241408 -5.657483 13.514864 -3.013016 -9.415673 -10.635248 -3.516908 -3.488997 -2.224512 -3.892439 4.962960 -2.091314 1.237949 94.918682 -67.232881 -101.851347 4.147471 -14.011101 -31.316593 -10.649414 -2.698270 -0.131140 -2.594046 -2.479274 -0.091459 -110.657218 -57.818658 121.579788 9.853619 -17.239511 -11.858703 -0.057354 -51.554941 9.487828 -124.681511 85.357864 -113.635234 -3.005516 -12.375244 -2.887877 -0.114311 0.673487 -0.059768 -9.553448 -54.915198 15.373027 -150.045002 80.462522 -157.971871 0.685283 -17.211508 8.380486 -0.477685 -0.789573 -0.359528
10.096968 50.082666 48.000484 174.666269 -29.259367 -6.364669 6.696210 21.003970 7.486763 0.729938 3.019331 0.758139 1.211040 4.882120 1.247375 5.259770 17.953286 5.238337 -5.669024 13.494999 -2.948661 -9.401599 -10.585619 -3.443324 -3.482780 -2.219447 -3.894947 4.814647 -2.010870 1.359905 94.766288 -67.650507 -101.672875 4.064352 -13.867938 -31.209267 -10.645084 -2.704254 -0.146944 -2.560004 -2.458690 -0.108876 -110.233176 -57.755831 121.367596 9.504212 -16.527574 -12.360138 -0.025256 -51.592305 9.498511 -124.941311 85.382995 -113.893339 -3.048740 -12.355334 -2.878789 -0.125613 0.665312 -0.064618 -9.576097 -54.932560 15.369473 -150.223619 80.462376 -158.129009 0.698892 -17.226511 8.352343 -0.469060 -0.772772 -0.346400
10.101988 50.079750 47.995871 174.639424 -29.247340 -6.366357 6.693498 20.979513 7.494686 0.741448 3.022495 0.755684 1.166847 4.834311 1.251498 5.225301 17.931886 5.242793 -5.636624 13.521888 -2.906030 -9.377506 -10.524847 -3.363793 -3.438803 -2.166318 -3.918700 4.722270 -1.960034 1.460110 94.506114 -68.000900 -101.431976 3.987084 -13.709703 -31.168334 -10.604607 -2.668402 -0.189022 -2.607506 -2.601352 -0.121321 -109.498784 -57.744763 120.863744 9.121251 -15.756377 -12.889004 -0.021292 -51.618096 9.528222 -125.126653 85.401019 -114.084904 -3.037603 -12.322080 -2.870822 -0.134402 0.672194 -0.070701 -9.623660 -54.939214 15.389395 -150.383252 80.460504 -158.271296 0.727616 -17.245351 8.324974 -0.460190 -0.755954 -0.336234
10.105139 50.078300 47.990975 174.621367 -29.241573 -6.369153 6.661317 20.949664 7.493652 0.736112 3.010713 0.755114 1.162188 4.814117 1.251140 5.147615 17.838990 5.253148 -5.567391 13.624552 -2.887898 -9.342253 -10.457908 -3.282493 -3.409782 -2.122011 -3.915832 4.739158 -1.847984 1.502244 94.161303 -68.292876 -101.153115 3.912564 -13.529674 -31.140814 -10.626240 -2.683770 -0.232411 -2.532161 -2.594823 -0.154213 -108.863265 -57.734093 120.418483 8.723601 -14.947911 -13.408367 -0.021987 -51.630847 9.553605 -125.174163 85.401652 -114.135482 -3.036894 -12.303631 -2.855662 -0.153748 0.686879 -0.081959 -9.670485 -54.938775 15.398621 -150.571260 80.463204 -158.444003 0.763039 -17.261881 8.292610 -0.444333 -0.742695 -0.322797
10.106609 50.078309 47.986091 174.612114 -29.240952 -6.374451 6.578179 20.893157 7.485022 0.737452 2.999474 0.752538 1.188271 4.827360 1.245507 5.110563 17.789728 5.260318 -5.518581 13.714245 -2.895029 -9.307433 -10.410028 -3.151968 -3.381053 -2.098238 -3.900303 4.763108 -1.770785 1.535400 93.764023 -68.530198 -100.862825 3.834292 -13.324548 -31.079707 -10.642200 -2.704572 -0.265117 -2.481442 -2.611789 -0.170509 -108.308727 -57.739483 120.006121 8.344457 -14.162936 -13.867304 -0.033111 -51.636331 9.581682 -125.123848 85.389083 -114.093737 -3.028645 -12.280589 -2.841990 -0.167640 0.719532 -0.085964 -9.714532 -54.933061 15.399319 -150.789809 80.470143 -158.640963 0.769104 -17.272746 8.265056 -0.441927 -0.720382 -0.286062
10.106889 50.078210 47.984288 174.593291 -29.227191 -6.377761 6.551576 20.840627 7.490698 0.721798 2.976286 0.754574 1.191547 4.821725 1.243838 5.092245 17.761366 5.268656 -5.485600 13.787339 -2.896534 -9.248794 -10.368829 -3.029917 -3.350361 -2.086651 -3.879712 4.790386 -1.703888 1.560127 93.349714 -68.714490 -100.577066 3.745353 -13.099978 -30.953277 -10.653639 -2.727690 -0.293899 -2.452224 -2.656864 -0.177443 -107.799920 -57.799758 119.591812 8.009071 -13.492514 -14.216154 -0.044174 -51.651281 9.615301 -124.812750 85.351364 -113.793078 -2.994231 -12.268394 -2.830964 -0.182761 0.737209 -0.091190 -9.737608 -54.942948 15.414430 -150.915234 80.473232 -158.754644 0.758330 -17.274369 8.262858 -0.421715 -0.715260 -0.278443
10.105830 50.079834 47.981986 174.592478 -29.221842 -6.389163 6.511823 20.790086 7.498922 0.736276 2.997153 0.748947 1.166672 4.771238 1.252293 5.075640 17.731696 5.281417 -5.434310 13.776186 -2.783229 -9.156415 -10.264889 -3.049965 -3.313835 -2.075729 -3.854242 4.800985 -1.626815 1.570350 92.957970 -68.860421 -100.309001 3.646277 -12.873193 -30.738507 -10.665131 -2.749132 -0.323483 -2.430753 -2.706714 -0.185978 -107.408087 -57.886193 119.231858 7.751968 -12.941630 -14.407134 -0.071016 -51.651844 9.648870 -124.643163 85.338054 -113.635501 -2.985376 -12.262746 -2.824430 -0.189405 0.744741 -0.092453 -9.768686 -54.942715 15.419259 -151.064618 80.481658 -158.895436 0.772413 -17.278406 8.248845 -0.441309 -0.711465 -0.265524
10.104727 50.083341 47.978984 174.572447 -29.230745 -6.397429 6.504513 20.757942 7.516659 0.742376 3.007021 0.746405 1.142305 4.716499 1.261945 5.060736 17.700808 5.297245 -5.382265 13.815561 -2.744142 -9.056796 -10.205139 -3.003585 -3.271493 -2.065721 -3.827164 4.769405 -1.537614 1.571806 92.639434 -69.003872 -100.087018 3.544295 -12.662313 -30.416512 -10.673717 -2.763551 -0.350674 -2.423663 -2.763585 -0.199653 -106.958038 -58.104203 118.815833 7.549200 -12.639696 -14.493780 -0.077407 -51.637247 9.684661 -124.324167 85.313316 -113.325101 -2.953041 -12.260547 -2.818657 -0.198947 0.758587 -0.092759 -9.787262 -54.925833 15.412245 -151.363330 80.498107 -159.156633 0.739734 -17.291906 8.227524 -0.419683 -0.699489 -0.265287
10.101058 50.086589 47.977927 174.546628 -29.231130 -6.394645 6.519584 20.741853 7.526089 0.713151 2.953400 0.756942 1.156646 4.740663 1.256212 5.028914 17.620459 5.320821 -5.352252 13.920006 -2.778992 -8.929142 -10.209703 -2.892857 -3.224083 -2.057421 -3.803083 4.689894 -1.441256 1.569020 92.429699 -69.189994 -99.927866 3.452075 -12.483179 -29.990930 -10.678496 -2.771336 -0.373628 -2.429186 -2.823115 -0.214970 -106.559168 -58.400729 118.423852 7.415782 -12.500831 -14.479788 -0.062103 -51.629691 9.702890 -123.904279 85.286160 -112.915748 -2.911499 -12.267311 -2.809093 -0.221928 0.805941 -0.091151 -9.773963 -54.918473 15.345605 -151.886950 80.538866 -159.620927 0.761430 -17.322326 8.172294 -0.446347 -0.679494 -0.272738
10.098431 50.091504 47.975967 174.540268 -29.242678 -6.412180 6.456303 20.653679 7.545502 0.705805 2.931193 0.759544 1.166478 4.752197 1.252425 5.023707 17.609046 5.335977 -5.246613 13.878117 -2.678911 -8.819022 -10.094171 -2.939929 -3.172159 -2.045245 -3.784074 4.572815 -1.351446 1.559857 92.323773 -69.443941 -99.821193 3.376653 -12.352255 -29.490577 -10.682674 -2.773769 -0.393103 -2.437001 -2.878035 -0.228137 -106.226758 -58.702419 118.079507 7.394866 -12.470349 -14.396270 -0.070303 -51.606632 9.734891 -123.631746 85.282519 -112.639833 -2.931229 -12.276561 -2.798323 -0.196708 0.829411 -0.094276 -9.781598 -54.900840 15.320636 -152.267648 80.563344 -159.952667 0.738729 -17.336093 8.128012 -0.431966 -0.669993 -0.262193
